HIERARCHY
ROOT Hips
{
	OFFSET	0.00	0.00	0.00
	CHANNELS 6 Xposition Yposition Zposition Zrotation Xrotation Yrotation
	JOINT Spine
	{
		OFFSET	 0.00	0.01	 0.00
		CHANNELS 3 Zrotation Xrotation Yrotation
		JOINT Spine1
		{
			OFFSET	 0.00	 2.45913012437421	 0.00
			CHANNELS 3 Zrotation Xrotation Yrotation
            JOINT Neck
            {
                OFFSET	 0.00	 2.48462964506057	 0.00
                CHANNELS 3 Zrotation Xrotation Yrotation
                JOINT Head
                {
                    OFFSET	 0.00	 0.927524780924562	 0.00
                    CHANNELS 3 Zrotation Xrotation Yrotation
                    End Site 
                    {
                        OFFSET	 0.00	 1.14999962169752	 0.00
                    }
                }
            }
			JOINT LeftShoulder
			{
				OFFSET	 0.00	 2.48462964506057	 0.00
				CHANNELS 3 Zrotation Xrotation Yrotation
				JOINT LeftUpArm
				{
					OFFSET	 0.00	 1.24881979654096	 0.00
					CHANNELS 3 Zrotation Xrotation Yrotation
					JOINT LeftForeArm
					{
						OFFSET	 0.00	2.59758046908119	 0.00
						CHANNELS 3 Zrotation Xrotation Yrotation
						JOINT LeftHand
						{
							OFFSET	 0.00	2.45542024364365	 0.00
							CHANNELS 3 Zrotation Xrotation Yrotation
							JOINT LeftHandThumb 
							{
								OFFSET	 0.00	0.00	 0.00
								CHANNELS 3 Zrotation Xrotation Yrotation
								End Site
								{
									OFFSET	 0.00	0.00	1.00000003353624
								}
							}
							JOINT L_Wrist_End 
							{
								OFFSET	 0.00	0.99999967115358	 0.00
								CHANNELS 3 Zrotation Xrotation Yrotation
								End Site 
								{
									OFFSET	 0.00	 0.00	 0.00
								}
							}
						}
					}
				}
			}
			JOINT RightShoulder
			{
				OFFSET	 0.00	 2.48462964506057	 0.00
				CHANNELS 3 Zrotation Xrotation Yrotation
				JOINT RightUpArm
				{
					OFFSET	 0.00	 1.24881979654096	 0.00
					CHANNELS 3 Zrotation Xrotation Yrotation
					JOINT RightForeArm
					{
						OFFSET	 0.00	2.59758046908119	 0.00
						CHANNELS 3 Zrotation Xrotation Yrotation
						JOINT RightHand
						{
							OFFSET	 0.00	2.45542024364365	 0.00
							CHANNELS 3 Zrotation Xrotation Yrotation
							JOINT RightHandThumb 
							{
								OFFSET	 0.00	0.00	 0.00
								CHANNELS 3 Zrotation Xrotation Yrotation
								End Site
								{
									OFFSET	 0.00	0.00	1.00000003353624
								}
							}
							JOINT R_Wrist_End 
							{
								OFFSET	 0.00	0.99999967115358	 0.00
								CHANNELS 3 Zrotation Xrotation Yrotation
								End Site 
								{
									OFFSET	 0.00	 0.00	 0.00
								}
							}
						}
					}
				}
			}
		}
	}
	JOINT LeftUpLeg
	{
		OFFSET	 1.2719394002717	 0.00	 0.00
		CHANNELS 3 Zrotation Xrotation Yrotation
		JOINT LeftLowLeg
		{
			OFFSET	 0.00	-4.3429100912261	 0.00
			CHANNELS 3 Zrotation Xrotation Yrotation
			JOINT LeftFoot
			{
				OFFSET	 0.00	-4.48767017425826	 0.00
				CHANNELS 3 Zrotation Xrotation Yrotation
				JOINT LeftToeBase
                {
                    OFFSET	 0.00	0.00	 1.51507020887566
                    CHANNELS 3 Zrotation Xrotation Yrotation
                    End Site 
                    {
                        OFFSET	 0.00	0.00	 0.75000010571191
                    }
                }
			}
		}
	}
	JOINT RightUpLeg
	{
		OFFSET	 -1.2719393604653	 0.00	 0.00
		CHANNELS 3 Zrotation Xrotation Yrotation
		JOINT RightLowLeg
		{
			OFFSET	 0.00	-4.3429100912261	 0.00
			CHANNELS 3 Zrotation Xrotation Yrotation
			JOINT RightFoot
			{
				OFFSET	 0.00	-4.48767017425826	 0.00
				CHANNELS 3 Zrotation Xrotation Yrotation
				JOINT RightToeBase
                {
                    OFFSET	 0.00	0.00	 1.51507020887566
                    CHANNELS 3 Zrotation Xrotation Yrotation
                    End Site 
                    {
                        OFFSET	 0.00	0.00	 0.749999965609858
                    }
                }   
			}
		}
	}
}
MOTION 
Frames:	6 
Frame Time: 0.02 
 0.632041015625 6.4573297119140625 9.3168701171875 -157.23 79.8682 872.851 2.7399 -9.69598 0.579362 5.66907 -9.80368 0.712046 -19.4976 58.3417 373.907 101.481 -77.9359 -266.801 -114.1013 -7.61864 -6.76178 7.61535 13.3124 -18.5759 0.0 7.49751 0.0 35.1337 -7.24949 29.4058 0.0 0.0 0.0 0.0 0.0 0.0 109.1669 -2.41007 6.5724 -6.52963 6.0329 51.0631 0.0 14.3374 0.0 -33.5016 -12.6891 -49.792 0.0 0.0 0.0 0.0 0.0 0.0 5.94509 -3.2347 -0.477988 0.0 5.51572 0.0 -18.0464 -3.139799 11.964 0.0 -29.5612 0.0 5.32863 -5.77487 6.96532 0.0 7.54819 0.0 13.4486 4.5537996 -15.9389 0.0 -36.215797 0.0 
  0.6325180053710937 6.45718994140625 9.316539916992188 -157.211 79.8706 872.79 2.73611 -9.68181 0.60392 5.73119 -9.86604 0.74132 -20.5459 58.1367 375.371 101.042 -77.8546 -267.126 -114.0686 -7.55382 -6.70936 7.62626 13.2176 -18.46 0.0 7.45021 0.0 34.6466 -7.41962 29.4549 0.0 0.0 0.0 0.0 0.0 0.0 109.1148 -2.45049 6.68008 -6.30186 5.94631 51.1758 0.0 14.2714 0.0 -33.2284 -12.9675 -49.9192 0.0 0.0 0.0 0.0 0.0 0.0 5.94493 -3.24103 -0.475008 0.0 5.55644 0.0 -18.0538 -3.1814003 11.9848 0.0 -29.5279 0.0 5.32905 -5.77696 6.96104 0.0 7.55333 0.0 13.4282 4.5676003 -15.9006 0.0 -36.247803 0.0 
  0.6327629852294921 6.455999755859375 9.316290283203125 -157.243 79.8618 872.741 2.73699 -9.71963 0.63813 5.79187 -9.87354 0.775886 -21.4763 57.9537 376.654 100.753 -77.7892 -267.285 -114.018295 -7.51115 -6.62009 7.65221 13.1114 -18.4151 0.0 7.39325 0.0 34.3508 -7.4996 29.5357 0.0 0.0 0.0 0.0 0.0 0.0 109.109695 -2.46508 6.68517 -6.18778 5.83311 51.2113 0.0 14.254 0.0 -32.8444 -13.0556 -49.8677 0.0 0.0 0.0 0.0 0.0 0.0 5.94453 -3.23237 -0.409557 0.0 5.5732 0.0 -18.0469 -3.212 11.9953 0.0 -29.5197 0.0 5.33343 -5.79058 7.00589 0.0 7.57087 0.0 13.4395 4.5670004 -15.8581 0.0 -36.2505 0.0 
  0.6321049880981445 6.452979736328125 9.315889892578125 -157.105 79.9184 872.688 2.6877 -9.72721 0.590788 5.84704 -9.87284 0.737947 -22.0424 57.8191 377.442 100.407 -77.7558 -267.509 -113.9685 -7.48537 -6.61301 7.70398 13.071 -18.3705 0.0 7.30731 0.0 34.2562 -7.48381 29.6047 0.0 0.0 0.0 0.0 0.0 0.0 109.084 -2.47625 6.63373 -6.10451 5.67345 51.132 0.0 14.2642 0.0 -32.6599 -13.0421 -49.7544 0.0 0.0 0.0 0.0 0.0 0.0 5.93808 -3.17923 -0.496695 0.0 5.5885 0.0 -18.0546 -3.2175007 11.9852 0.0 -29.555 0.0 5.31826 -5.68312 6.85781 0.0 7.52516 0.0 13.4289 4.5598 -15.8066 0.0 -36.2532 0.0 
  0.6317279815673829 6.451190185546875 9.31572998046875 -157.099 79.9238 872.69 2.65034 -9.77558 0.576882 5.92747 -9.88111 0.7319 -22.6358 57.7413 378.216 100.246 -77.7456 -267.629 -113.9703 -7.45556 -6.64425 7.81737 13.0022 -18.432 0.0 7.26602 0.0 34.1995 -7.52283 29.5929 0.0 0.0 0.0 0.0 0.0 0.0 109.0659 -2.46575 6.58125 -6.10901 5.55665 50.9602 0.0 14.2466 0.0 -32.7331 -12.9418 -49.9332 0.0 0.0 0.0 0.0 0.0 0.0 5.9379 -3.16747 -0.496955 0.0 5.59475 0.0 -18.0445 -3.2210007 11.9805 0.0 -29.5476 0.0 5.31685 -5.66449 6.85478 0.0 7.52217 0.0 13.3889 4.5518 -15.8162 0.0 -36.258102 0.0 
  0.6312129974365235 6.449530029296875 9.315479736328125 -157.113 79.9276 872.712 2.6163 -9.82491 0.548477 5.98949 -9.89497 0.710715 -23.1766 57.6894 378.881 100.282 -77.7632 -267.605 -113.9653 -7.44727 -6.64635 7.96457 12.9017 -18.672 0.0 7.29656 0.0 34.0908 -7.72988 29.3627 0.0 0.0 0.0 0.0 0.0 0.0 109.0549 -2.42408 6.5252 -6.14943 5.43913 50.6309 0.0 14.2693 0.0 -32.7568 -12.9816 -50.0166 0.0 0.0 0.0 0.0 0.0 0.0 5.93712 -3.15635 -0.474062 0.0 5.59475 0.0 -18.0432 -3.2157993 11.9549 0.0 -29.535099 0.0 5.31506 -5.65045 6.83396 0.0 7.51932 0.0 13.3771 4.5437 -15.8105 0.0 -36.276 0.0 
